ply
format ascii 1.0
element vertex 724
property float32 x
property float32 y
property float32 z
element face 1200
property list uint8 int32 vertex_indices
end_header
63.8905 30.8181 71.1658 
62.8377 30.8181 97.8769 
62.8377 30.8181 71.1658 
63.8905 30.8181 97.8769 
63.1684 29.7016 71.0533 
61.8051 33.1295 70.9408 
63.1684 29.7016 45.9408 
63.5912 26.2869 71.1658 
63.5912 26.2869 20.9408 
62.6083 31.4402 20.9408 
61.8051 33.1295 120.941 
62.6083 31.4402 120.941 
63.5912 26.2869 120.941 
63.5912 26.2869 97.8769 
61.8051 33.1295 20.9408 
59.4932 36.184 70.9408 
56.4398 38.4975 70.9408 
59.4932 36.184 45.9408 
59.4907 36.1864 120.941 
56.4398 38.4975 20.9408 
59.4907 36.1864 20.9408 
56.4398 38.4975 120.941 
53.009 39.8633 95.9408 
49.5912 40.2869 120.941 
54.7446 39.304 20.9408 
54.7446 39.304 120.941 
49.5912 40.2869 20.9408 
53.2498 40.8339 45.9408 
49.5912 41.2869 20.9408 
55.1127 40.2337 120.941 
56.9226 39.3732 70.9408 
55.1127 40.2337 20.9408 
56.9226 39.3732 120.941 
49.5912 41.2869 120.941 
56.9226 39.3732 20.9408 
60.1952 36.8962 70.9408 
62.674 33.6247 70.9408 
60.1952 36.8962 45.9408 
60.1978 36.8935 120.941 
62.674 33.6247 20.9408 
60.1978 36.8935 20.9408 
62.674 33.6247 120.941 
63.5381 31.8083 20.9408 
63.5381 31.8083 120.941 
64.5912 26.2869 20.9408 
64.5912 26.2869 97.8769 
64.5912 26.2869 71.1658 
64.5912 26.2869 120.941 
13.6933 36.1881 70.9408 
18.4379 39.304 20.9408 
13.6933 36.1881 120.941 
18.4379 39.304 120.941 
23.5912 40.2869 120.941 
23.5912 40.2869 20.9408 
13.6933 36.1881 20.9408 
10.5742 31.4402 120.941 
13.6917 36.1864 20.9408 
10.5742 31.4402 20.9408 
9.5912 26.2869 20.9408 
9.5912 26.2869 120.941 
13.6917 36.1864 120.941 
23.5912 41.2869 120.941 
23.5912 41.2869 20.9408 
12.9828 36.8918 70.9408 
9.64437 31.8083 20.9408 
12.9828 36.8918 120.941 
9.64437 31.8083 120.941 
8.5912 26.2869 120.941 
8.5912 26.2869 20.9408 
12.9828 36.8918 20.9408 
18.0698 40.2337 120.941 
12.9846 36.8935 20.9408 
18.0698 40.2337 20.9408 
12.9846 36.8935 120.941 
7.65227 30.2955 17.1908 
5.03568 29.7207 13.4408 
7.12816 35.5101 13.4408 
4.79697 27.9825 13.4408 
0.246433 30.6069 5.94084 
-0.149916 26.2869 5.94084 
1.51699 35.0259 5.94084 
2.87899 37.8906 5.94084 
11.3773 33.1295 20.9408 
10.2444 39.6271 13.4408 
8.01239 40.821 9.69084 
14.36 42.7455 13.4408 
11.9668 37.9055 17.1908 
6.59625 39.1365 9.69084 
6.8037 43.0744 5.94084 
3.71999 39.2783 5.94084 
10.4813 36.199 17.1908 
10.5998 46.1581 5.94084 
16.7426 38.4975 20.9408 
11.9774 46.9935 5.94084 
21.361 42.5702 17.1908 
18.3988 44.4291 13.4408 
21.8956 45.0811 13.4408 
16.4046 46.3441 9.69084 
19.2712 49.6317 5.94084 
17.226 44.0516 13.4408 
14.8522 48.3611 5.94084 
23.5912 50.028 5.94084 
49.5912 50.028 5.94084 
53.5999 42.2258 17.1908 
53.025 44.8424 13.4408 
58.8144 42.75 13.4408 
51.2868 45.0811 13.4408 
53.9113 49.6317 5.94084 
58.3302 48.3611 5.94084 
61.1949 46.9991 5.94084 
56.4339 38.5008 20.9408 
62.9314 39.6337 13.4408 
64.1253 41.8657 9.69084 
66.0498 35.5181 13.4408 
61.2099 37.9113 17.1908 
62.4408 43.2819 9.69084 
66.3787 43.0744 5.94084 
62.5826 46.1581 5.94084 
59.5033 39.3968 17.1908 
69.4624 39.2783 5.94084 
61.8018 33.1355 20.9408 
70.2978 37.9007 5.94084 
65.8745 28.5171 17.1908 
67.7334 31.4793 13.4408 
68.3855 27.9825 13.4408 
69.6484 33.4735 9.69084 
72.936 30.6069 5.94084 
67.3559 32.6521 13.4408 
71.6655 35.0259 5.94084 
73.3324 26.2869 5.94084 
6.31718 28.6528 17.1908 
4.48767 31.7545 13.4408 
3.80102 28.0724 13.4408 
2.59083 33.8059 9.69084 
-0.736873 30.7889 5.94084 
4.88358 32.985 13.4408 
6.25574 35.9988 13.4408 
0.587199 35.394 5.94084 
-1.14992 26.2869 5.94084 
10.5049 33.6183 20.9408 
2.00657 38.3793 5.94084 
9.5371 40.334 13.4408 
11.3401 40.3526 15.3158 
13.8708 43.6176 13.4408 
7.81467 42.0556 9.69084 
9.68367 36.8021 17.1908 
13.0726 40.1919 17.1908 
16.2534 39.3696 20.9408 
5.79859 39.7396 9.69084 
7.28119 41.5032 9.69084 
6.09659 43.7815 5.94084 
2.883 39.8255 5.94084 
10.0526 46.9951 5.94084 
11.4883 47.8656 5.94084 
19.3348 43.1947 17.1908 
19.9755 45.8257 13.4408 
21.8057 46.0771 13.4408 
19.0892 50.615 5.94084 
23.5912 51.028 5.94084 
14.4841 49.2909 5.94084 
49.5912 51.028 5.94084 
51.9571 43.5609 17.1908 
55.0588 45.3905 13.4408 
51.3767 46.0771 13.4408 
57.1102 47.2873 9.69084 
54.0932 50.615 5.94084 
56.2893 44.9945 13.4408 
59.3031 43.6224 13.4408 
58.6983 49.2909 5.94084 
61.6837 47.8715 5.94084 
63.6384 40.341 13.4408 
63.6569 38.538 15.3158 
66.922 36.0073 13.4408 
65.3599 42.0634 9.69084 
60.1064 40.1945 17.1908 
63.4962 36.8056 17.1908 
63.0439 44.0795 9.69084 
64.8075 42.5969 9.69084 
67.0859 43.7815 5.94084 
63.1298 46.9951 5.94084 
70.2994 39.8255 5.94084 
71.17 38.3899 5.94084 
66.499 30.5433 17.1908 
69.1301 29.9026 13.4408 
69.3814 28.0724 13.4408 
73.9193 30.7889 5.94084 
74.3324 26.2869 5.94084 
72.5952 35.394 5.94084 
71.6696 35.0154 -9.05916 
72.936 30.6069 -24.0592 
71.6696 35.0154 5.94084 
73.3324 26.2869 -24.0592 
71.6696 35.0154 -24.0592 
69.4678 39.2701 -9.05916 
66.3843 43.0689 -9.05916 
69.4678 39.2701 -16.5592 
66.3843 43.0689 -24.0592 
69.4624 39.2783 -24.0592 
71.6655 35.0259 -24.0592 
66.3843 43.0689 5.94084 
62.5875 46.1549 -9.05916 
58.3337 48.3597 -9.05916 
62.5875 46.1549 -16.5592 
58.3337 48.3597 -24.0592 
62.5826 46.1581 -24.0592 
66.3787 43.0744 -24.0592 
58.3337 48.3597 5.94084 
58.3302 48.3611 -24.0592 
53.9113 49.6317 -24.0592 
49.5912 50.028 -24.0592 
23.5912 50.028 -24.0592 
14.8627 48.3653 -9.05916 
19.2712 49.6317 -24.0592 
14.8627 48.3653 5.94084 
14.8627 48.3653 -24.0592 
10.608 46.1634 -9.05916 
6.80926 43.08 -9.05916 
10.608 46.1634 -16.5592 
6.80926 43.08 -24.0592 
10.5998 46.1581 -24.0592 
14.8522 48.3611 -24.0592 
6.80926 43.08 5.94084 
3.72319 39.2832 -9.05916 
1.51838 35.0294 -9.05916 
3.72319 39.2832 -16.5592 
1.51838 35.0294 -24.0592 
3.71999 39.2783 -24.0592 
6.8037 43.0744 -24.0592 
1.51838 35.0294 5.94084 
1.51699 35.0259 -24.0592 
0.246433 30.6069 -24.0592 
-0.149916 26.2869 -24.0592 
49.5912 51.028 -24.0592 
23.5912 51.028 -24.0592 
58.6874 49.2953 -9.05916 
54.0932 50.615 -24.0592 
58.6874 49.2953 5.94084 
58.6874 49.2953 -24.0592 
63.1213 47.0007 -9.05916 
67.0801 43.7873 -9.05916 
63.1213 47.0007 -16.5592 
67.0801 43.7873 -24.0592 
63.1298 46.9951 -24.0592 
58.6983 49.2909 -24.0592 
67.0801 43.7873 5.94084 
70.2961 39.8306 -9.05916 
72.5938 35.3976 -9.05916 
70.2961 39.8306 -16.5592 
72.5938 35.3976 -24.0592 
70.2994 39.8255 -24.0592 
67.0859 43.7815 -24.0592 
72.5938 35.3976 5.94084 
72.5952 35.394 -24.0592 
73.9193 30.7889 -24.0592 
74.3324 26.2869 -24.0592 
0.582862 35.383 -9.05916 
-0.736873 30.7889 -24.0592 
0.582862 35.383 5.94084 
-1.14992 26.2869 -24.0592 
0.582862 35.383 -24.0592 
2.87745 39.817 -9.05916 
6.09079 43.7757 -9.05916 
2.87745 39.817 -16.5592 
6.09079 43.7757 -24.0592 
2.883 39.8255 -24.0592 
0.587199 35.394 -24.0592 
6.09079 43.7757 5.94084 
10.0475 46.9918 -9.05916 
14.4805 49.2895 -9.05916 
10.0475 46.9918 -16.5592 
14.4805 49.2895 -24.0592 
10.0526 46.9951 -24.0592 
6.09659 43.7815 -24.0592 
14.4805 49.2895 5.94084 
14.4841 49.2909 -24.0592 
19.0892 50.615 -24.0592 
63.873 27.6469 97.8769 
63.3651 27.6469 97.8769 
63.5912 24.4784 97.8769 
64.5912 24.4784 97.8769 
64.3809 27.6469 97.8769 
63.5912 24.4784 20.9408 
63.5912 24.4784 71.1658 
63.5912 24.4784 120.941 
64.5912 24.4784 71.1658 
64.5912 24.4784 20.9408 
64.5912 24.4784 120.941 
9.5912 24.4784 120.941 
9.5912 24.4784 20.9408 
12.9846 36.8935 120.941 
19.7677 40.0576 120.941 
9.5912 26.2869 120.941 
19.7677 39.5576 120.941 
8.5912 26.2869 120.941 
9.5912 24.4784 120.941 
8.5912 24.4784 120.941 
19.7677 40.5576 120.941 
30.9736 41.2869 120.941 
30.9736 40.7869 120.941 
30.9736 40.2869 120.941 
42.1795 41.2869 120.941 
42.1795 40.7869 120.941 
42.1795 40.2869 120.941 
53.3854 40.5632 120.941 
53.3854 40.0632 120.941 
53.3854 39.5632 120.941 
64.5912 26.2869 120.941 
63.5912 26.2869 120.941 
8.5912 24.4784 20.9408 
8.5912 24.4784 120.941 
8.22989 44.8737 -24.0592 
3.71999 39.2783 -24.0592 
8.22989 45.5145 -24.0592 
1.51699 35.0259 -24.0592 
-1.14992 26.2869 -24.0592 
-0.149917 26.2869 -24.0592 
-1.14992 24.4784 -24.0592 
8.22989 44.233 -24.0592 
-0.149917 24.4784 -24.0592 
10.5998 46.1581 -24.0592 
10.0526 46.9951 -24.0592 
17.6731 49.69 -24.0592 
17.6731 49.1722 -24.0592 
17.6731 50.2078 -24.0592 
27.1163 50.528 -24.0592 
27.1163 50.028 -24.0592 
27.1163 51.028 -24.0592 
36.5595 50.028 -24.0592 
36.5595 50.528 -24.0592 
36.5595 51.028 -24.0592 
46.0027 50.028 -24.0592 
46.0027 50.528 -24.0592 
46.0027 51.028 -24.0592 
55.4459 49.7082 -24.0592 
55.4459 50.2261 -24.0592 
55.4459 49.1904 -24.0592 
63.1298 46.9951 -24.0592 
64.8892 44.9252 -24.0592 
64.8892 45.566 -24.0592 
64.8892 44.2845 -24.0592 
71.6655 35.0259 -24.0592 
73.3324 24.4784 -24.0592 
74.3324 24.4784 -24.0592 
73.3324 24.4784 5.94084 
-0.149916 24.4784 5.94084 
74.3324 24.4784 5.94084 
-1.14992 24.4784 5.94084 
-0.149916 24.4784 -24.0592 
-1.14992 24.4784 -24.0592 
63.873 27.6469 71.1658 
64.3809 27.6469 71.1658 
63.3651 27.6469 71.1658 
64.0912 24.4784 23.5374 
64.5912 24.4784 23.5374 
63.5912 24.4784 23.5374 
8.5912 24.4784 20.9408 
9.0912 24.4784 48.4249 
-1.14992 24.4784 5.94084 
9.5912 24.4784 48.4249 
8.5912 24.4784 48.4249 
9.5912 24.0955 20.9408 
-0.149916 24.0955 5.94084 
8.5912 24.0955 20.9408 
9.0912 24.0955 48.4249 
-1.14992 24.0955 5.94084 
8.5912 24.0955 48.4249 
-1.14992 24.0955 -24.0592 
-0.149916 24.0955 -24.0592 
9.5912 24.0955 48.4249 
9.5912 24.0955 120.941 
8.5912 24.0955 120.941 
9.5912 22.2869 120.941 
9.5912 22.2869 20.9408 
12.9846 11.6803 120.941 
18.0698 8.3401 120.941 
18.4379 9.26989 120.941 
13.6917 12.3874 120.941 
9.64437 16.7655 120.941 
19.7677 8.51623 120.941 
10.5742 17.1336 120.941 
8.5912 22.2869 120.941 
19.7677 8.01623 120.941 
9.5912 22.2869 120.941 
19.7677 9.01623 120.941 
9.5912 24.0955 120.941 
23.5912 8.28692 120.941 
23.5912 7.28692 120.941 
30.9736 8.28692 120.941 
30.9736 7.78692 120.941 
30.9736 7.28692 120.941 
42.1795 8.28692 120.941 
42.1795 7.78692 120.941 
42.1795 7.28692 120.941 
49.5912 8.28692 120.941 
49.5912 7.28692 120.941 
53.3854 8.51062 120.941 
53.3854 8.01062 120.941 
53.3854 9.01062 120.941 
60.1978 11.6803 120.941 
59.4907 12.3874 120.941 
54.7446 9.26989 120.941 
63.5381 16.7655 120.941 
62.6083 17.1336 120.941 
63.5912 22.2869 120.941 
64.5912 22.2869 120.941 
63.5912 24.0955 120.941 
55.1127 8.3401 120.941 
64.5912 24.0955 120.941 
64.5912 24.0955 97.8769 
63.5912 24.0955 97.8769 
63.873 20.927 97.8769 
64.5912 22.2869 97.8769 
64.3809 20.927 97.8769 
63.5912 22.2869 97.8769 
63.3651 20.927 97.8769 
62.8377 17.7557 97.8769 
63.8905 17.7557 97.8769 
53.2498 7.73993 95.9408 
49.5912 7.28692 120.941 
55.1127 8.3401 20.9408 
56.9226 9.20063 70.9408 
56.9226 9.20063 20.9408 
49.5912 7.28692 20.9408 
56.9226 9.20063 120.941 
60.1952 11.6777 70.9408 
62.674 14.9492 70.9408 
60.1952 11.6777 95.9408 
60.1978 11.6803 20.9408 
62.674 14.9492 120.941 
62.674 14.9492 20.9408 
64.1374 18.625 71.0533 
64.1374 18.625 45.9408 
64.5912 22.2869 71.1658 
63.8905 17.7557 71.1658 
64.5912 22.2869 20.9408 
63.5381 16.7655 20.9408 
23.5912 7.28692 20.9408 
23.5912 7.28692 120.941 
12.9828 11.6821 70.9408 
12.9828 11.6821 20.9408 
9.64437 16.7655 20.9408 
8.5912 22.2869 20.9408 
8.5912 22.2869 120.941 
12.9828 11.6821 120.941 
18.0698 8.3401 20.9408 
12.9846 11.6803 120.941 
12.9846 11.6803 20.9408 
8.5912 24.0955 120.941 
8.5912 24.0955 20.9408 
-1.14992 22.2869 5.94084 
-1.14992 24.0955 5.94084 
-1.14992 22.2869 -24.0592 
-1.14992 24.0955 -24.0592 
64.9526 3.70013 -24.0592 
70.2994 8.74834 -24.0592 
67.0859 4.79231 -24.0592 
69.4624 9.29555 -24.0592 
64.9526 3.05937 -24.0592 
72.5952 13.1798 -24.0592 
71.6655 13.5479 -24.0592 
73.9193 17.785 -24.0592 
72.936 17.9669 -24.0592 
74.3324 22.2869 -24.0592 
73.3324 22.2869 -24.0592 
66.3787 5.49942 -24.0592 
74.3324 24.0955 -24.0592 
64.9526 4.34088 -24.0592 
73.3324 24.0955 -24.0592 
62.5826 2.41572 -24.0592 
58.6983 -0.717077 -24.0592 
58.3302 0.212712 -24.0592 
63.1298 1.57872 -24.0592 
55.5093 -1.11617 -24.0592 
55.5093 -0.598355 -24.0592 
55.5093 -1.63398 -24.0592 
49.5912 -1.45419 -24.0592 
53.9113 -1.05784 -24.0592 
49.5912 -2.45419 -24.0592 
46.0661 -1.95419 -24.0592 
54.0932 -2.04115 -24.0592 
46.0661 -1.45419 -24.0592 
46.0661 -2.45419 -24.0592 
36.6229 -1.45419 -24.0592 
36.6229 -1.95419 -24.0592 
36.6229 -2.45419 -24.0592 
27.1797 -1.45419 -24.0592 
27.1797 -1.95419 -24.0592 
27.1797 -2.45419 -24.0592 
19.2712 -1.05784 -24.0592 
23.5912 -1.45419 -24.0592 
19.0892 -2.04115 -24.0592 
17.7365 -1.1344 -24.0592 
23.5912 -2.45419 -24.0592 
17.7365 -1.65221 -24.0592 
17.7365 -0.616586 -24.0592 
14.4841 -0.717077 -24.0592 
10.0526 1.57872 -24.0592 
14.8522 0.212712 -24.0592 
10.5998 2.41572 -24.0592 
8.29329 3.64862 -24.0592 
8.29329 3.00787 -24.0592 
8.29329 4.28938 -24.0592 
6.09659 4.79231 -24.0592 
0.587199 13.1798 -24.0592 
3.71999 9.29555 -24.0592 
6.8037 5.49942 -24.0592 
1.51699 13.5479 -24.0592 
0.246433 17.9669 -24.0592 
-0.149917 22.2869 -24.0592 
-1.14992 22.2869 -24.0592 
-0.149917 24.0955 -24.0592 
-0.736873 17.785 -24.0592 
2.883 8.74834 -24.0592 
64.5912 24.0955 20.9408 
73.3324 24.0955 5.94084 
63.5912 24.0955 20.9408 
64.0912 24.0955 23.5374 
74.3324 24.0955 5.94084 
63.5912 24.0955 23.5374 
64.5912 24.0955 23.5374 
64.5912 24.0955 71.1658 
63.5912 24.0955 71.1658 
63.5912 22.2869 20.9408 
63.5912 22.2869 71.1658 
73.3324 22.2869 5.94084 
71.6696 13.5585 -9.05916 
72.936 17.9669 5.94084 
71.6696 13.5585 -24.0592 
71.6696 13.5585 5.94084 
69.4678 9.3037 -9.05916 
66.3843 5.50498 -9.05916 
69.4678 9.3037 -1.55916 
66.3843 5.50498 5.94084 
69.4624 9.29555 5.94084 
71.6655 13.5479 5.94084 
66.3843 5.50498 -24.0592 
71.6655 13.5479 -24.0592 
62.5875 2.41891 -9.05916 
58.3337 0.2141 -9.05916 
62.5875 2.41891 -1.55916 
58.3337 0.2141 5.94084 
62.5826 2.41572 5.94084 
66.3787 5.49942 5.94084 
58.3337 0.2141 -24.0592 
58.3302 0.212711 5.94084 
53.9113 -1.05784 5.94084 
49.5912 -1.45419 5.94084 
49.5912 -1.45419 -24.0592 
58.3302 0.212711 -24.0592 
51.8214 6.00366 17.1908 
54.7836 4.14479 13.4408 
51.2868 3.4927 13.4408 
49.5912 8.28692 20.9408 
54.7446 9.26989 20.9408 
56.7731 2.22803 9.69084 
55.9522 4.52078 13.4408 
58.8144 5.82388 13.4408 
56.4339 10.073 20.9408 
61.1949 1.57471 5.94084 
62.9314 8.94011 13.4408 
62.9028 10.6926 15.3158 
66.0498 13.0558 13.4408 
64.653 7.21768 9.69084 
59.5033 9.17706 17.1908 
62.6987 12.3716 17.1908 
59.4907 12.3874 20.9408 
61.8018 15.4384 20.9408 
62.4408 5.29198 9.69084 
64.1253 6.70811 9.69084 
70.2978 10.6732 5.94084 
65.5292 18.2746 17.1908 
68.1468 18.8532 13.4408 
62.6083 17.1336 20.9408 
68.3855 20.5913 13.4408 
61.8051 15.4443 70.9408 
61.8051 15.4443 20.9408 
62.8377 17.7557 71.1658 
61.8051 15.4443 120.941 
59.4932 12.3899 70.9408 
56.4398 10.0764 70.9408 
59.4932 12.3899 95.9408 
56.4398 10.0764 120.941 
56.4398 10.0764 20.9408 
53.009 8.71052 45.9408 
63.873 20.927 71.1658 
63.3651 20.927 71.1658 
64.3809 20.927 71.1658 
74.3324 22.2869 5.94084 
53.8438 5.37819 17.1908 
53.207 2.7481 13.4408 
59.3031 4.95146 13.4408 
51.3767 2.49674 13.4408 
54.0932 -2.04115 5.94084 
49.5912 -2.45419 5.94084 
58.6983 -0.717077 5.94084 
61.6837 0.702294 5.94084 
63.6384 8.23282 13.4408 
64.8075 5.97691 9.69084 
66.922 12.5666 13.4408 
61.9168 9.95525 17.1908 
63.0439 4.49431 9.69084 
67.0859 4.79231 5.94084 
63.1298 1.57872 5.94084 
60.1064 8.37939 17.1908 
70.2994 8.74834 5.94084 
71.17 10.184 5.94084 
66.8653 19.921 17.1908 
68.6948 16.8194 13.4408 
69.3814 20.5015 13.4408 
70.5898 14.763 9.69084 
73.9193 17.785 5.94084 
68.2973 15.5844 13.4408 
72.5952 13.1798 5.94084 
23.5912 -2.45419 5.94084 
6.68247 18.0344 17.1908 
4.05237 18.6712 13.4408 
6.25574 12.575 13.4408 
3.80102 20.5015 13.4408 
-0.736873 17.785 5.94084 
0.587199 13.1798 5.94084 
2.00657 10.1945 5.94084 
10.5049 14.9556 20.9408 
9.5371 8.23981 13.4408 
7.28119 7.07068 9.69084 
13.8708 4.9562 13.4408 
11.2595 9.96138 17.1908 
5.79859 8.83429 9.69084 
6.09659 4.79231 5.94084 
2.883 8.74834 5.94084 
9.68367 11.7717 17.1908 
10.0526 1.57872 5.94084 
16.2534 9.20421 20.9408 
11.4883 0.708194 5.94084 
21.2253 5.01291 17.1908 
18.1236 3.18339 13.4408 
21.8057 2.49674 13.4408 
16.0673 1.28833 9.69084 
19.0892 -2.04115 5.94084 
16.8887 3.58089 13.4408 
14.4841 -0.717077 5.94084 
0.582862 13.1908 -9.05916 
0.582862 13.1908 -24.0592 
0.582862 13.1908 5.94084 
2.87745 8.75683 -9.05916 
6.09079 4.79811 -9.05916 
2.87745 8.75683 -1.55916 
6.09079 4.79811 5.94084 
6.09079 4.79811 -24.0592 
10.0475 1.58205 -9.05916 
14.4805 -0.71563 -9.05916 
10.0475 1.58205 -1.55916 
10.0526 1.57872 -24.0592 
14.4805 -0.71563 5.94084 
14.4805 -0.71563 -24.0592 
58.6874 -0.721415 -9.05916 
58.6874 -0.721415 -24.0592 
58.6874 -0.721415 5.94084 
63.1213 1.57317 -9.05916 
67.0801 4.78652 -9.05916 
63.1213 1.57317 -1.55916 
63.1298 1.57872 -24.0592 
67.0801 4.78652 5.94084 
67.0801 4.78652 -24.0592 
70.2961 8.74325 -9.05916 
72.5938 13.1762 -9.05916 
70.2961 8.74325 -1.55916 
72.5938 13.1762 5.94084 
72.5938 13.1762 -24.0592 
23.5912 8.28692 20.9408 
23.5912 -1.45419 5.94084 
23.5912 -1.45419 -24.0592 
14.8627 0.208549 -9.05916 
19.2712 -1.05784 5.94084 
14.8627 0.208549 -24.0592 
14.8627 0.208549 5.94084 
10.608 2.41039 -9.05916 
6.80926 5.49386 -9.05916 
10.608 2.41039 -1.55916 
10.5998 2.41572 -24.0592 
6.80926 5.49386 5.94084 
10.5998 2.41572 5.94084 
14.8522 0.212711 5.94084 
6.80926 5.49386 -24.0592 
14.8522 0.212711 -24.0592 
3.72319 9.29067 -9.05916 
1.51838 13.5444 -9.05916 
3.72319 9.29067 -1.55916 
3.71999 9.29555 -24.0592 
1.51838 13.5444 5.94084 
3.71999 9.29555 5.94084 
6.8037 5.49942 5.94084 
1.51838 13.5444 -24.0592 
1.51699 13.5479 5.94084 
0.246433 17.9669 5.94084 
-0.149916 22.2869 5.94084 
-0.149916 22.2869 -24.0592 
1.51699 13.5479 -24.0592 
7.30794 20.0567 17.1908 
5.44906 17.0945 13.4408 
4.79697 20.5913 13.4408 
10.5742 17.1336 20.9408 
3.53231 15.105 9.69084 
5.82506 15.9259 13.4408 
7.12816 13.0638 13.4408 
11.3773 15.4443 20.9408 
2.87899 10.6833 5.94084 
10.2444 8.94674 13.4408 
11.9969 8.97534 15.3158 
14.36 5.82838 13.4408 
8.52195 7.22516 9.69084 
10.4813 12.3748 17.1908 
13.6759 9.17951 17.1908 
13.6917 12.3874 20.9408 
16.7426 10.0764 20.9408 
6.59625 9.43739 9.69084 
8.01239 7.75285 9.69084 
11.9774 1.58037 5.94084 
19.5789 6.34892 17.1908 
20.1575 3.7314 13.4408 
18.4379 9.26989 20.9408 
21.8956 3.4927 13.4408 
13.6933 12.3858 70.9408 
13.6933 12.3858 20.9408 
13.6933 12.3858 120.941 
3 0 1 2 
3 0 3 1 
3 4 5 6 
3 7 4 6 
3 4 7 2 
3 5 4 2 
3 6 8 7 
3 6 5 9 
3 8 6 9 
3 5 1 10 
3 1 11 10 
3 1 12 11 
3 5 2 1 
3 1 13 12 
3 5 14 9 
3 15 16 17 
3 5 15 17 
3 15 5 18 
3 16 15 18 
3 17 19 20 
3 5 17 20 
3 19 17 16 
3 20 14 5 
3 18 21 16 
3 5 10 18 
3 22 23 24 
3 16 22 24 
3 22 16 25 
3 23 22 25 
3 24 19 16 
3 23 26 24 
3 16 21 25 
3 27 28 29 
3 30 27 29 
3 27 30 31 
3 28 27 31 
3 29 32 30 
3 28 33 29 
3 30 34 31 
3 35 36 37 
3 30 35 37 
3 35 30 38 
3 36 35 38 
3 37 39 40 
3 30 37 40 
3 39 37 36 
3 40 34 30 
3 38 41 36 
3 30 32 38 
3 36 42 39 
3 36 0 42 
3 36 3 0 
3 36 43 3 
3 0 44 42 
3 43 45 3 
3 0 46 44 
3 43 47 45 
3 36 41 43 
3 48 49 50 
3 49 51 50 
3 49 52 51 
3 49 53 52 
3 48 54 49 
3 48 55 56 
3 56 54 48 
3 55 57 56 
3 55 58 57 
3 55 59 58 
3 48 60 55 
3 48 50 60 
3 23 53 26 
3 23 52 53 
3 61 28 62 
3 61 33 28 
3 63 64 65 
3 64 66 65 
3 64 67 66 
3 64 68 67 
3 63 69 64 
3 63 70 71 
3 71 69 63 
3 70 72 71 
3 70 62 72 
3 70 61 62 
3 63 73 70 
3 63 65 73 
3 74 58 75 
3 76 74 75 
3 74 76 57 
3 58 74 57 
3 77 78 75 
3 58 77 75 
3 77 58 79 
3 78 77 79 
3 75 80 76 
3 80 75 78 
3 80 81 76 
3 76 82 57 
3 83 76 84 
3 85 83 84 
3 83 85 86 
3 76 83 86 
3 87 88 84 
3 76 87 84 
3 87 76 89 
3 88 87 89 
3 90 76 86 
3 56 90 86 
3 90 56 82 
3 76 90 82 
3 84 91 85 
3 91 84 88 
3 86 92 56 
3 92 86 85 
3 91 93 85 
3 76 81 89 
3 94 95 96 
3 53 94 96 
3 94 53 49 
3 95 94 49 
3 97 98 99 
3 85 97 99 
3 97 85 100 
3 98 97 100 
3 98 96 95 
3 96 98 101 
3 53 96 101 
3 95 49 99 
3 98 95 99 
3 99 92 85 
3 92 99 49 
3 85 93 100 
3 26 101 102 
3 26 53 101 
3 103 26 104 
3 105 103 104 
3 103 105 24 
3 26 103 24 
3 106 107 104 
3 26 106 104 
3 106 26 102 
3 107 106 102 
3 104 108 105 
3 108 104 107 
3 108 109 105 
3 105 110 24 
3 111 105 112 
3 113 111 112 
3 111 113 114 
3 105 111 114 
3 115 116 112 
3 105 115 112 
3 115 105 117 
3 116 115 117 
3 118 105 114 
3 20 118 114 
3 118 20 110 
3 105 118 110 
3 112 119 113 
3 119 112 116 
3 114 120 20 
3 120 114 113 
3 119 121 113 
3 105 109 117 
3 122 123 124 
3 8 122 124 
3 122 8 9 
3 123 122 9 
3 125 126 127 
3 113 125 127 
3 125 113 128 
3 126 125 128 
3 126 124 123 
3 124 126 129 
3 8 124 129 
3 123 9 127 
3 126 123 127 
3 127 120 113 
3 120 127 9 
3 113 121 128 
3 130 131 132 
3 68 130 132 
3 130 68 64 
3 131 130 64 
3 133 134 135 
3 136 133 135 
3 133 136 137 
3 134 133 137 
3 134 132 131 
3 132 134 138 
3 68 132 138 
3 131 64 135 
3 134 131 135 
3 135 139 136 
3 139 135 64 
3 136 140 137 
3 141 136 142 
3 143 141 142 
3 141 143 144 
3 136 141 144 
3 142 145 146 
3 143 142 146 
3 145 142 136 
3 71 146 145 
3 146 71 147 
3 143 146 147 
3 145 136 139 
3 71 145 139 
3 148 136 149 
3 150 148 149 
3 148 150 151 
3 136 148 151 
3 149 136 144 
3 152 149 144 
3 149 152 150 
3 144 153 152 
3 153 144 143 
3 151 140 136 
3 154 62 155 
3 143 154 155 
3 154 143 72 
3 62 154 72 
3 156 157 155 
3 62 156 155 
3 156 62 158 
3 157 156 158 
3 155 159 143 
3 159 155 157 
3 159 153 143 
3 143 147 72 
3 62 160 158 
3 62 28 160 
3 161 162 163 
3 28 161 163 
3 161 28 31 
3 162 161 31 
3 164 165 166 
3 167 164 166 
3 164 167 168 
3 165 164 168 
3 165 163 162 
3 163 165 160 
3 28 163 160 
3 162 31 166 
3 165 162 166 
3 166 34 167 
3 34 166 31 
3 167 169 168 
3 170 167 171 
3 172 170 171 
3 170 172 173 
3 167 170 173 
3 171 174 175 
3 172 171 175 
3 174 171 167 
3 40 175 174 
3 175 40 39 
3 172 175 39 
3 174 167 34 
3 40 174 34 
3 176 167 177 
3 178 176 177 
3 176 178 179 
3 167 176 179 
3 177 167 173 
3 180 177 173 
3 177 180 178 
3 173 181 180 
3 181 173 172 
3 179 169 167 
3 182 44 183 
3 172 182 183 
3 182 172 42 
3 44 182 42 
3 184 185 183 
3 44 184 183 
3 184 44 186 
3 185 184 186 
3 183 187 172 
3 187 183 185 
3 187 181 172 
3 172 39 42 
3 188 189 190 
3 189 126 190 
3 189 129 126 
3 189 191 129 
3 188 192 189 
3 193 194 195 
3 188 193 195 
3 193 188 119 
3 194 193 119 
3 195 196 197 
3 188 195 197 
3 196 195 194 
3 188 197 198 
3 198 192 188 
3 119 199 194 
3 188 128 119 
3 188 190 128 
3 200 201 202 
3 194 200 202 
3 200 194 117 
3 201 200 117 
3 202 203 204 
3 194 202 204 
3 203 202 201 
3 194 204 205 
3 205 196 194 
3 117 206 201 
3 194 116 117 
3 194 199 116 
3 201 107 203 
3 107 207 203 
3 107 208 207 
3 107 209 208 
3 107 102 209 
3 201 108 107 
3 201 206 108 
3 102 210 209 
3 102 101 210 
3 211 212 213 
3 212 98 213 
3 212 101 98 
3 212 210 101 
3 211 214 212 
3 215 216 217 
3 211 215 217 
3 215 211 91 
3 216 215 91 
3 217 218 219 
3 211 217 219 
3 218 217 216 
3 211 219 220 
3 220 214 211 
3 91 221 216 
3 211 100 91 
3 211 213 100 
3 222 223 224 
3 216 222 224 
3 222 216 89 
3 223 222 89 
3 224 225 226 
3 216 224 226 
3 225 224 223 
3 216 226 227 
3 227 218 216 
3 89 228 223 
3 216 88 89 
3 216 221 88 
3 223 78 225 
3 78 229 225 
3 78 230 229 
3 78 231 230 
3 78 79 231 
3 223 80 78 
3 223 228 80 
3 158 232 233 
3 158 160 232 
3 234 235 236 
3 235 165 236 
3 235 160 165 
3 235 232 160 
3 234 237 235 
3 238 239 240 
3 234 238 240 
3 238 234 179 
3 239 238 179 
3 240 241 242 
3 234 240 242 
3 241 240 239 
3 234 242 243 
3 243 237 234 
3 179 244 239 
3 234 168 179 
3 234 236 168 
3 245 246 247 
3 239 245 247 
3 245 239 180 
3 246 245 180 
3 247 248 249 
3 239 247 249 
3 248 247 246 
3 239 249 250 
3 250 241 239 
3 180 251 246 
3 239 178 180 
3 239 244 178 
3 246 185 248 
3 185 252 248 
3 185 253 252 
3 185 254 253 
3 185 186 254 
3 246 187 185 
3 246 251 187 
3 255 256 257 
3 256 134 257 
3 256 138 134 
3 256 258 138 
3 255 259 256 
3 260 261 262 
3 255 260 262 
3 260 255 151 
3 261 260 151 
3 262 263 264 
3 255 262 264 
3 263 262 261 
3 255 264 265 
3 265 259 255 
3 151 266 261 
3 255 137 151 
3 255 257 137 
3 267 268 269 
3 261 267 269 
3 267 261 152 
3 268 267 152 
3 269 270 271 
3 261 269 271 
3 270 269 268 
3 261 271 272 
3 272 263 261 
3 152 273 268 
3 261 150 152 
3 261 266 150 
3 268 157 270 
3 157 274 270 
3 157 275 274 
3 157 233 275 
3 157 158 233 
3 268 159 157 
3 268 273 159 
3 276 13 277 
3 276 45 13 
3 45 278 13 
3 45 279 278 
3 276 280 45 
3 276 3 280 
3 276 1 3 
3 276 277 1 
3 281 7 8 
3 281 282 7 
3 278 12 13 
3 278 283 12 
3 284 44 46 
3 284 285 44 
3 286 45 47 
3 286 279 45 
3 287 58 59 
3 287 288 58 
3 289 60 51 
3 51 290 289 
3 289 66 60 
3 66 55 60 
3 66 291 55 
3 51 292 290 
3 66 293 291 
3 293 294 291 
3 290 70 289 
3 293 295 294 
3 290 296 70 
3 290 61 296 
3 290 52 61 
3 52 297 61 
3 52 298 297 
3 52 299 298 
3 290 292 52 
3 298 300 297 
3 298 301 300 
3 298 302 301 
3 298 299 302 
3 301 33 300 
3 301 23 33 
3 23 303 33 
3 23 304 303 
3 23 305 304 
3 301 302 23 
3 38 29 25 
3 25 18 38 
3 18 43 38 
3 29 304 25 
3 18 11 43 
3 11 306 43 
3 29 303 304 
3 11 307 306 
3 307 286 306 
3 304 305 25 
3 307 283 286 
3 308 67 68 
3 308 309 67 
3 310 264 272 
3 310 311 264 
3 272 312 310 
3 311 265 264 
3 311 313 265 
3 313 256 265 
3 313 230 256 
3 230 314 256 
3 230 315 314 
3 310 227 311 
3 315 316 314 
3 310 317 227 
3 315 318 316 
3 319 310 274 
3 274 220 319 
3 310 320 274 
3 274 321 220 
3 310 312 320 
3 319 317 310 
3 321 322 220 
3 274 323 321 
3 321 210 212 
3 212 322 321 
3 321 233 210 
3 233 324 210 
3 321 275 233 
3 324 325 210 
3 321 323 275 
3 233 326 324 
3 324 327 325 
3 324 328 327 
3 324 329 328 
3 324 326 329 
3 328 330 327 
3 328 331 330 
3 328 332 331 
3 328 329 332 
3 331 208 209 
3 209 330 331 
3 331 235 208 
3 235 333 208 
3 331 232 235 
3 235 334 333 
3 333 335 208 
3 331 332 232 
3 243 336 207 
3 336 204 207 
3 336 337 204 
3 207 333 243 
3 336 338 337 
3 337 339 204 
3 207 335 333 
3 333 334 243 
3 250 252 197 
3 197 205 250 
3 252 340 197 
3 252 189 340 
3 205 339 250 
3 252 191 189 
3 339 337 250 
3 252 254 191 
3 254 341 191 
3 252 253 254 
3 250 249 252 
3 337 338 250 
3 254 342 341 
3 343 8 129 
3 343 281 8 
3 288 79 58 
3 288 344 79 
3 285 186 44 
3 285 345 186 
3 346 68 138 
3 346 308 68 
3 344 231 79 
3 344 347 231 
3 341 129 191 
3 341 343 129 
3 345 254 186 
3 345 342 254 
3 348 138 258 
3 348 346 138 
3 349 46 350 
3 349 7 46 
3 7 284 46 
3 7 282 284 
3 349 351 7 
3 349 2 351 
3 349 0 2 
3 349 350 0 
3 278 286 283 
3 278 279 286 
3 281 343 285 
3 285 352 281 
3 343 345 285 
3 285 353 352 
3 343 342 345 
3 343 341 342 
3 352 354 281 
3 352 282 354 
3 352 284 282 
3 352 353 284 
3 355 344 288 
3 288 356 355 
3 355 357 344 
3 288 358 356 
3 357 347 344 
3 357 316 347 
3 356 359 355 
3 356 295 359 
3 356 287 295 
3 356 358 287 
3 360 361 362 
3 362 363 360 
3 361 364 362 
3 362 365 363 
3 361 366 364 
3 361 367 366 
3 363 368 360 
3 363 369 368 
3 363 370 369 
3 363 365 370 
3 360 371 372 
3 360 369 371 
3 373 374 375 
3 375 376 373 
3 376 377 373 
3 374 378 375 
3 376 379 377 
3 379 380 377 
3 374 381 378 
3 379 382 380 
3 382 370 380 
3 378 383 375 
3 382 384 370 
3 378 385 383 
3 378 386 385 
3 386 387 385 
3 386 388 387 
3 378 381 386 
3 386 389 388 
3 388 390 387 
3 388 391 390 
3 388 392 391 
3 388 389 392 
3 391 393 390 
3 391 394 393 
3 394 395 393 
3 394 396 395 
3 395 397 393 
3 391 392 394 
3 398 399 400 
3 400 395 398 
3 398 401 399 
3 401 402 399 
3 401 403 402 
3 400 397 395 
3 401 404 403 
3 404 405 403 
3 395 406 398 
3 404 407 405 
3 395 396 406 
3 408 405 407 
3 408 409 405 
3 410 411 412 
3 410 413 411 
3 413 408 411 
3 413 409 408 
3 410 414 413 
3 410 415 414 
3 410 416 415 
3 410 412 416 
3 408 404 411 
3 408 407 404 
3 417 418 419 
3 420 417 419 
3 417 420 406 
3 418 417 406 
3 419 421 420 
3 418 422 419 
3 420 423 406 
3 424 425 426 
3 420 424 426 
3 424 420 427 
3 425 424 427 
3 426 428 398 
3 420 426 398 
3 428 426 425 
3 398 423 420 
3 427 429 425 
3 420 421 427 
3 430 425 431 
3 432 430 431 
3 430 432 433 
3 425 430 433 
3 431 434 432 
3 431 425 435 
3 434 431 435 
3 425 416 401 
3 401 428 425 
3 416 404 401 
3 425 433 416 
3 416 411 404 
3 425 429 435 
3 418 436 422 
3 418 437 436 
3 438 377 439 
3 377 440 439 
3 377 441 440 
3 377 442 441 
3 438 443 377 
3 438 444 445 
3 445 443 438 
3 444 374 445 
3 444 437 374 
3 444 436 437 
3 438 446 444 
3 438 439 446 
3 447 441 442 
3 447 448 441 
3 448 449 441 
3 448 450 449 
3 450 451 449 
3 450 452 451 
3 453 454 455 
3 453 456 454 
3 455 457 453 
3 456 458 454 
3 456 459 458 
3 459 460 458 
3 459 461 460 
3 461 462 460 
3 461 463 462 
3 453 464 456 
3 463 465 462 
3 453 466 464 
3 463 467 465 
3 468 453 469 
3 469 470 468 
3 453 471 469 
3 469 472 470 
3 453 457 471 
3 468 466 453 
3 472 473 470 
3 469 474 472 
3 472 475 476 
3 476 473 472 
3 472 477 475 
3 477 478 475 
3 472 479 477 
3 478 480 475 
3 472 474 479 
3 477 481 478 
3 478 482 480 
3 478 483 482 
3 478 484 483 
3 478 481 484 
3 483 485 482 
3 483 486 485 
3 483 487 486 
3 483 484 487 
3 486 488 489 
3 489 485 486 
3 486 490 488 
3 490 491 488 
3 486 492 490 
3 490 493 491 
3 491 494 488 
3 486 487 492 
3 495 496 497 
3 496 498 497 
3 496 499 498 
3 497 491 495 
3 496 500 499 
3 499 501 498 
3 497 494 491 
3 491 493 495 
3 502 503 504 
3 504 505 502 
3 503 506 504 
3 503 507 506 
3 505 501 502 
3 503 508 507 
3 501 499 502 
3 503 509 508 
3 509 510 508 
3 503 511 509 
3 502 512 503 
3 499 500 502 
3 509 366 510 
3 513 514 515 
3 515 516 513 
3 513 517 514 
3 515 518 516 
3 517 467 514 
3 517 465 467 
3 516 519 513 
3 516 520 519 
3 516 521 520 
3 516 518 521 
3 521 522 523 
3 521 515 522 
3 515 524 522 
3 515 514 524 
3 514 463 524 
3 514 467 463 
3 525 526 527 
3 526 461 527 
3 526 463 461 
3 526 524 463 
3 525 528 526 
3 529 530 531 
3 525 529 531 
3 529 525 456 
3 530 529 456 
3 531 532 533 
3 525 531 533 
3 532 531 530 
3 525 533 534 
3 534 528 525 
3 456 535 530 
3 525 536 456 
3 525 527 536 
3 537 538 539 
3 530 537 539 
3 537 530 468 
3 538 537 468 
3 539 540 541 
3 530 539 541 
3 540 539 538 
3 530 541 542 
3 542 532 530 
3 468 543 538 
3 530 464 468 
3 530 535 464 
3 538 476 540 
3 476 544 540 
3 476 545 544 
3 476 546 545 
3 476 547 546 
3 538 548 476 
3 538 543 548 
3 549 550 551 
3 552 549 551 
3 549 552 553 
3 550 549 553 
3 554 545 555 
3 556 554 555 
3 554 556 544 
3 545 554 544 
3 545 551 550 
3 551 545 546 
3 552 551 546 
3 550 553 555 
3 545 550 555 
3 555 557 556 
3 557 555 553 
3 556 558 544 
3 559 556 560 
3 561 559 560 
3 559 561 562 
3 556 559 562 
3 560 563 564 
3 561 560 564 
3 563 560 556 
3 565 564 563 
3 564 565 566 
3 561 564 566 
3 563 556 557 
3 565 563 557 
3 567 556 568 
3 542 567 568 
3 567 542 541 
3 556 567 541 
3 568 556 562 
3 533 568 562 
3 568 533 542 
3 562 569 533 
3 569 562 561 
3 541 558 556 
3 570 522 571 
3 561 570 571 
3 570 561 572 
3 522 570 572 
3 573 526 571 
3 522 573 571 
3 573 522 524 
3 526 573 524 
3 571 534 561 
3 534 571 526 
3 534 569 561 
3 561 566 572 
3 574 572 575 
3 574 576 572 
3 576 522 572 
3 574 415 576 
3 574 402 415 
3 576 523 522 
3 402 413 415 
3 402 403 413 
3 574 577 402 
3 578 579 580 
3 574 578 580 
3 578 574 565 
3 579 578 565 
3 580 581 399 
3 574 580 399 
3 581 580 579 
3 399 577 574 
3 565 582 579 
3 574 575 565 
3 583 552 400 
3 579 583 400 
3 583 579 553 
3 552 583 553 
3 400 581 579 
3 552 393 400 
3 579 582 553 
3 416 576 415 
3 416 433 576 
3 584 523 585 
3 584 432 523 
3 432 521 523 
3 432 520 521 
3 584 586 432 
3 584 433 586 
3 584 576 433 
3 584 585 576 
3 513 432 434 
3 513 520 432 
3 517 434 587 
3 517 513 434 
3 588 422 589 
3 590 588 589 
3 588 590 419 
3 422 588 419 
3 591 592 589 
3 422 591 589 
3 591 422 593 
3 592 591 593 
3 589 594 590 
3 594 589 592 
3 594 595 590 
3 590 421 419 
3 596 590 597 
3 598 596 597 
3 596 598 599 
3 590 596 599 
3 600 601 597 
3 590 600 597 
3 600 590 602 
3 601 600 602 
3 603 590 599 
3 427 603 599 
3 603 427 421 
3 590 603 421 
3 597 604 598 
3 604 597 601 
3 599 429 427 
3 429 599 598 
3 604 605 598 
3 590 595 602 
3 606 607 608 
3 434 606 608 
3 606 434 435 
3 607 606 435 
3 609 610 611 
3 598 609 611 
3 609 598 612 
3 610 609 612 
3 610 608 607 
3 608 610 587 
3 434 608 587 
3 607 435 611 
3 610 607 611 
3 611 429 598 
3 429 611 435 
3 598 605 612 
3 422 613 593 
3 422 436 613 
3 614 441 615 
3 616 614 615 
3 614 616 440 
3 441 614 440 
3 617 618 615 
3 441 617 615 
3 617 441 449 
3 618 617 449 
3 615 619 616 
3 619 615 618 
3 619 620 616 
3 616 621 440 
3 622 616 623 
3 624 622 623 
3 622 624 625 
3 616 622 625 
3 626 627 623 
3 616 626 623 
3 626 616 628 
3 627 626 628 
3 629 616 625 
3 446 629 625 
3 629 446 621 
3 616 629 621 
3 623 630 624 
3 630 623 627 
3 625 631 446 
3 631 625 624 
3 630 632 624 
3 616 620 628 
3 633 634 635 
3 436 633 635 
3 633 436 444 
3 634 633 444 
3 636 637 638 
3 624 636 638 
3 636 624 639 
3 637 636 639 
3 637 635 634 
3 635 637 613 
3 436 635 613 
3 634 444 638 
3 637 634 638 
3 638 631 624 
3 631 638 444 
3 624 632 639 
3 640 618 641 
3 618 511 641 
3 618 451 511 
3 618 449 451 
3 640 642 618 
3 643 644 645 
3 640 643 645 
3 643 640 512 
3 644 643 512 
3 645 646 628 
3 640 645 628 
3 646 645 644 
3 640 628 619 
3 619 642 640 
3 512 647 644 
3 640 503 512 
3 640 641 503 
3 648 649 650 
3 644 648 650 
3 648 644 651 
3 649 648 651 
3 650 652 630 
3 644 650 630 
3 652 650 649 
3 644 630 627 
3 627 646 644 
3 651 653 649 
3 644 502 651 
3 644 647 502 
3 649 490 652 
3 490 639 652 
3 490 637 639 
3 490 613 637 
3 490 492 613 
3 649 495 490 
3 649 653 495 
3 593 492 477 
3 593 613 492 
3 654 592 655 
3 592 479 655 
3 592 477 479 
3 592 593 477 
3 654 656 592 
3 657 658 659 
3 654 657 659 
3 657 654 660 
3 658 657 660 
3 659 661 602 
3 654 659 602 
3 661 659 658 
3 654 602 594 
3 594 656 654 
3 660 662 658 
3 654 469 660 
3 654 655 469 
3 663 664 665 
3 658 663 665 
3 663 658 454 
3 664 663 454 
3 665 666 604 
3 658 665 604 
3 666 665 664 
3 658 604 601 
3 601 661 658 
3 454 667 664 
3 658 455 454 
3 658 662 455 
3 664 460 666 
3 460 612 666 
3 460 610 612 
3 460 587 610 
3 460 462 587 
3 664 458 460 
3 664 667 458 
3 465 587 462 
3 465 517 587 
3 385 552 668 
3 385 393 552 
3 668 546 669 
3 668 552 546 
3 669 547 670 
3 669 546 547 
3 671 672 673 
3 672 488 673 
3 672 670 488 
3 672 669 670 
3 671 674 672 
3 675 676 677 
3 671 675 677 
3 675 671 678 
3 676 675 678 
3 677 679 680 
3 671 677 680 
3 679 677 676 
3 671 680 681 
3 681 674 671 
3 678 682 676 
3 671 683 678 
3 671 673 683 
3 684 685 686 
3 676 684 686 
3 684 676 687 
3 685 684 687 
3 686 688 689 
3 676 686 689 
3 688 686 685 
3 676 689 690 
3 690 679 676 
3 687 691 685 
3 676 505 687 
3 676 682 505 
3 685 507 688 
3 507 692 688 
3 507 693 692 
3 507 694 693 
3 507 695 694 
3 685 696 507 
3 685 691 696 
3 697 698 699 
3 372 697 699 
3 697 372 700 
3 698 697 700 
3 701 693 702 
3 703 701 702 
3 701 703 692 
3 693 701 692 
3 693 699 698 
3 699 693 694 
3 372 699 694 
3 698 700 702 
3 693 698 702 
3 702 704 703 
3 704 702 700 
3 703 705 692 
3 706 703 707 
3 708 706 707 
3 706 708 709 
3 703 706 709 
3 707 710 711 
3 708 707 711 
3 710 707 703 
3 712 711 710 
3 711 712 713 
3 708 711 713 
3 710 703 704 
3 712 710 704 
3 714 703 715 
3 690 714 715 
3 714 690 689 
3 703 714 689 
3 715 703 709 
3 680 715 709 
3 715 680 690 
3 709 716 680 
3 716 709 708 
3 689 705 703 
3 717 668 718 
3 708 717 718 
3 717 708 719 
3 668 717 719 
3 720 672 718 
3 668 720 718 
3 720 668 669 
3 672 720 669 
3 718 681 708 
3 681 718 672 
3 681 716 708 
3 708 713 719 
3 721 375 722 
3 375 719 722 
3 375 668 719 
3 375 385 668 
3 721 723 375 
3 721 700 376 
3 376 723 721 
3 700 379 376 
3 700 371 379 
3 700 372 371 
3 721 712 700 
3 721 722 712 
3 361 372 694 
3 361 360 372 
3 367 694 695 
3 367 361 694 
3 405 413 403 
3 405 409 413 
