ply
format ascii 1.0
element vertex 304
property float32 x
property float32 y
property float32 z
element face 604
property list uint8 int32 vertex_indices
end_header
-1.02882 -1 0.514379 
-0.67097 -1 0.782767 
-0.975908 -0.915637 0.487925 
-0.636462 -0.915637 0.742509 
-0.316891 -1 0.800446 
-0.300593 -0.915637 0.759279 
-0.145915 -1 1.06468 
-0.138411 -0.915637 1.00992 
0.149405 -1 1.06468 
0.141721 -0.915637 1.00992 
0.273751 -1 0.792675 
0.259672 -0.915637 0.751908 
0.693336 -1 0.782767 
0.657678 -0.915637 0.742509 
0.98409 -1 0.514379 
0.933478 -0.915637 0.487925 
0.984091 -1 -0.469711 
0.933479 -0.915637 -0.445554 
0.7828 -1 -0.782831 
0.742541 -0.915637 -0.74257 
0.230312 -1 -0.78504 
0.218467 -0.915637 -0.744665 
0.126835 -1 -1.02649 
0.120312 -0.915637 -0.973698 
-0.1836 -1 -1.04374 
-0.174157 -0.915637 -0.990061 
-0.269831 -1 -0.819533 
-0.255954 -0.915637 -0.777384 
-0.738069 -1 -0.805197 
-0.70011 -0.915637 -0.763786 
-1.02882 -1 -0.492077 
-0.975908 -0.915637 -0.466769 
-0.914375 -0.836715 0.45716 
-0.596332 -0.836715 0.695693 
-0.28164 -0.836715 0.711405 
-0.129684 -0.836715 0.946246 
0.132785 -0.836715 0.946246 
0.243299 -0.836715 0.704499 
0.61621 -0.836715 0.695693 
0.874621 -0.836715 0.45716 
0.874622 -0.836715 -0.417461 
0.695722 -0.836715 -0.69575 
0.204692 -0.836715 -0.697713 
0.112726 -0.836715 -0.912304 
-0.163177 -0.836715 -0.927635 
-0.239815 -0.836715 -0.728369 
-0.655967 -0.836715 -0.715628 
-0.914375 -0.836715 -0.437339 
-0.837458 -0.815192 0.418704 
-0.546169 -0.815192 0.637172 
-0.257949 -0.815192 0.651562 
-0.118775 -0.815192 0.866648 
0.121616 -0.815192 0.866648 
0.222833 -0.815192 0.645237 
0.564375 -0.815192 0.637172 
0.801048 -0.815192 0.418704 
0.801049 -0.815192 -0.382344 
0.637198 -0.815192 -0.637224 
0.187474 -0.815192 -0.639022 
0.103244 -0.815192 -0.835562 
-0.14945 -0.815192 -0.849603 
-0.219642 -0.815192 -0.667099 
-0.600787 -0.815192 -0.65543 
-0.837458 -0.815192 -0.40055 
-0.814383 -0.750619 0.407167 
-0.53112 -0.750619 0.619615 
-0.250841 -0.750619 0.633609 
-0.115502 -0.750619 0.842769 
0.118265 -0.750619 0.842769 
0.216693 -0.750619 0.627458 
0.548824 -0.750619 0.619615 
0.778976 -0.750619 0.407167 
0.778977 -0.750619 -0.371809 
0.619641 -0.750619 -0.619666 
0.182308 -0.750619 -0.621414 
0.100399 -0.750619 -0.812539 
-0.145332 -0.750619 -0.826193 
-0.21359 -0.750619 -0.648718 
-0.584233 -0.750619 -0.63737 
-0.814383 -0.750619 -0.389513 
-0.51441 -0.688772 0.25719 
-0.335485 -0.688772 0.391383 
-0.158446 -0.688772 0.400223 
-0.0729575 -0.688772 0.53234 
0.0747025 -0.688772 0.53234 
0.136875 -0.688772 0.396338 
0.346668 -0.688772 0.391383 
0.492045 -0.688772 0.25719 
0.492045 -0.688772 -0.234856 
0.3914 -0.688772 -0.391416 
0.115156 -0.688772 -0.39252 
0.0634175 -0.688772 -0.513245 
-0.0918 -0.688772 -0.52187 
-0.134916 -0.688772 -0.409766 
-0.369034 -0.688772 -0.402599 
-0.51441 -0.688772 -0.246038 
-0.294883 -0.569321 0.147433 
-0.192315 -0.569321 0.224359 
-0.0908283 -0.569321 0.229426 
-0.0418226 -0.569321 0.305162 
0.0428229 -0.569321 0.305162 
0.0784633 -0.569321 0.227199 
0.198726 -0.569321 0.224359 
0.282063 -0.569321 0.147433 
0.282063 -0.569321 -0.13463 
0.224368 -0.569321 -0.224377 
0.0660127 -0.569321 -0.225011 
0.0363538 -0.569321 -0.294216 
-0.052624 -0.569321 -0.29916 
-0.0773398 -0.569321 -0.234897 
-0.211548 -0.569321 -0.230788 
-0.294883 -0.569321 -0.141041 
-0.268278 -0.463632 0.134131 
-0.174964 -0.463632 0.204117 
-0.0826335 -0.463632 0.208727 
-0.0380492 -0.463632 0.277629 
0.0389593 -0.463632 0.277629 
0.0713841 -0.463632 0.2067 
0.180796 -0.463632 0.204117 
0.256614 -0.463632 0.134131 
0.256615 -0.463632 -0.122483 
0.204125 -0.463632 -0.204133 
0.0600568 -0.463632 -0.204709 
0.0330739 -0.463632 -0.267671 
-0.0478761 -0.463632 -0.272169 
-0.0703619 -0.463632 -0.213704 
-0.192461 -0.463632 -0.209966 
-0.268278 -0.463632 -0.128315 
-0.345194 -0.427759 0.172587 
-0.225127 -0.427759 0.262637 
-0.106325 -0.427759 0.268569 
-0.048958 -0.427759 0.357226 
0.050129 -0.427759 0.357226 
0.09185 -0.427759 0.265961 
0.232631 -0.427759 0.262637 
0.330186 -0.427759 0.172587 
0.330186 -0.427759 -0.157599 
0.262648 -0.427759 -0.262659 
0.0772752 -0.427759 -0.2634 
0.0425562 -0.427759 -0.344412 
-0.0616022 -0.427759 -0.3502 
-0.0905348 -0.427759 -0.274973 
-0.24764 -0.427759 -0.270163 
-0.345194 -0.427759 -0.165104 
-0.375961 -0.370361 0.187969 
-0.245192 -0.370361 0.286046 
-0.115801 -0.370361 0.292506 
-0.0533216 -0.370361 0.389065 
0.0545969 -0.370361 0.389065 
0.100037 -0.370361 0.289666 
0.253365 -0.370361 0.286046 
0.359615 -0.370361 0.187969 
0.359615 -0.370361 -0.171646 
0.286058 -0.370361 -0.286069 
0.0841627 -0.370361 -0.286876 
0.0463492 -0.370361 -0.375109 
-0.0670928 -0.370361 -0.381413 
-0.0986041 -0.370361 -0.299481 
-0.269712 -0.370361 -0.294242 
-0.375961 -0.370361 -0.179819 
-0.683626 -0.284265 0.341792 
-0.445843 -0.284265 0.52013 
-0.210566 -0.284265 0.531877 
-0.096957 -0.284265 0.707454 
0.099276 -0.284265 0.707454 
0.181901 -0.284265 0.526713 
0.460705 -0.284265 0.52013 
0.653904 -0.284265 0.341792 
0.653905 -0.284265 -0.312112 
0.520152 -0.284265 -0.520172 
0.153037 -0.284265 -0.52164 
0.0842788 -0.284265 -0.682078 
-0.121998 -0.284265 -0.69354 
-0.179296 -0.284265 -0.54456 
-0.490429 -0.284265 -0.535034 
-0.683626 -0.284265 -0.326973 
-0.822076 0.117518 0.411013 
-0.536137 0.117518 0.625468 
-0.253211 0.117518 0.639594 
-0.116593 0.117518 0.850729 
0.119382 0.117518 0.850729 
0.21874 0.117518 0.633385 
0.554008 0.117518 0.625468 
0.786334 0.117518 0.411013 
0.786335 0.117518 -0.375321 
0.625494 0.117518 -0.625519 
0.18403 0.117518 -0.627284 
0.101347 0.117518 -0.820214 
-0.146705 0.117518 -0.833997 
-0.215608 0.117518 -0.654845 
-0.589752 0.117518 -0.64339 
-0.822076 0.117518 -0.393193 
-0.799 0.174915 0.399476 
-0.521087 0.174915 0.607911 
-0.246103 0.174915 0.621641 
-0.11332 0.174915 0.82685 
0.116031 0.174915 0.82685 
0.2126 0.174915 0.615606 
0.538457 0.174915 0.607911 
0.764262 0.174915 0.399476 
0.764263 0.174915 -0.364786 
0.607937 0.174915 -0.607961 
0.178864 0.174915 -0.609676 
0.0985023 0.174915 -0.797191 
-0.142587 0.174915 -0.810587 
-0.209556 0.174915 -0.636464 
-0.573198 0.174915 -0.625331 
-0.799 0.174915 -0.382156 
-1.01437 0.863685 0.507152 
-0.661544 0.863685 0.77177 
-0.312439 0.863685 0.7892 
-0.143865 0.863685 1.04972 
0.147306 0.863685 1.04972 
0.269905 0.863685 0.781539 
0.683595 0.863685 0.77177 
0.970264 0.863685 0.507152 
0.970266 0.863685 -0.463112 
0.771802 0.863685 -0.771833 
0.227076 0.863685 -0.774011 
0.125053 0.863685 -1.01207 
-0.181021 0.863685 -1.02908 
-0.26604 0.863685 -0.808019 
-0.7277 0.863685 -0.793885 
-1.01437 0.863685 -0.485164 
-1.19127 0.964127 0.595599 
-0.776916 0.964127 0.906366 
-0.366928 0.964127 0.926836 
-0.168955 0.964127 1.23279 
0.172996 0.964127 1.23279 
0.316976 0.964127 0.917838 
0.802814 0.964127 0.906366 
1.13948 0.964127 0.595599 
1.13948 0.964127 -0.543878 
0.906404 0.964127 -0.90644 
0.266678 0.964127 -0.908998 
0.146862 0.964127 -1.18857 
-0.21259 0.964127 -1.20855 
-0.312437 0.964127 -0.948937 
-0.85461 0.964127 -0.932338 
-1.19127 0.964127 -0.569776 
-1.10666 1 0.553297 
-0.721736 1 0.841991 
-0.340867 1 0.861008 
-0.156955 1 1.14523 
0.160709 1 1.14523 
0.294463 1 0.852649 
0.745794 1 0.841991 
1.05855 1 0.553297 
1.05855 1 -0.505249 
0.842027 1 -0.84206 
0.247737 1 -0.844436 
0.136431 1 -1.10415 
-0.197491 1 -1.12271 
-0.290246 1 -0.881539 
-0.793911 1 -0.866118 
-1.10666 1 -0.529308 
-0.875917 0.921086 0.437932 
-0.57125 0.921086 0.666432 
-0.269795 0.921086 0.681484 
-0.124229 0.921086 0.906447 
0.1272 0.921086 0.906447 
0.233066 0.921086 0.674868 
0.590292 0.921086 0.666432 
0.837835 0.921086 0.437932 
0.837835 0.921086 -0.399903 
0.66646 0.921086 -0.666487 
0.196083 0.921086 -0.668367 
0.107985 0.921086 -0.873933 
-0.156313 0.921086 -0.888619 
-0.229729 0.921086 -0.697734 
-0.628377 0.921086 -0.685529 
-0.875917 0.921086 -0.418945 
-0.522101 -0.119247 0.261035 
-0.340501 -0.119247 0.397235 
-0.160815 -0.119247 0.406207 
-0.0740484 -0.119247 0.5403 
0.0758194 -0.119247 0.5403 
0.138922 -0.119247 0.402264 
0.351851 -0.119247 0.397235 
0.499402 -0.119247 0.261035 
0.499403 -0.119247 -0.238367 
0.397252 -0.119247 -0.397268 
0.116878 -0.119247 -0.398389 
0.0643657 -0.119247 -0.520919 
-0.0931726 -0.119247 -0.529673 
-0.136933 -0.119247 -0.415893 
-0.374552 -0.119247 -0.408618 
-0.522101 -0.119247 -0.249717 
-0.0067625 -0.226867 0.00338104 
-0.00441033 -0.226867 0.00514517 
-0.00208294 -0.226867 0.00526138 
-0.000959108 -0.226867 0.00699821 
0.000982048 -0.226867 0.00699821 
0.00179938 -0.226867 0.0052103 
0.00455734 -0.226867 0.00514517 
0.00646848 -0.226867 0.00338104 
0.00646849 -0.226867 -0.00308744 
0.00514539 -0.226867 -0.0051456 
0.00151385 -0.226867 -0.00516012 
0.000833694 -0.226867 -0.00674718 
-0.00120681 -0.226867 -0.00686057 
-0.00177362 -0.226867 -0.00538684 
-0.00485137 -0.226867 -0.00529261 
-0.0067625 -0.226867 -0.00323445 
3 0 1 2 
3 2 1 3 
3 1 4 3 
3 3 4 5 
3 4 6 5 
3 5 6 7 
3 6 8 7 
3 7 8 9 
3 8 10 9 
3 9 10 11 
3 10 12 11 
3 11 12 13 
3 12 14 13 
3 13 14 15 
3 14 16 15 
3 15 16 17 
3 16 18 17 
3 17 18 19 
3 18 20 19 
3 19 20 21 
3 20 22 21 
3 21 22 23 
3 22 24 23 
3 23 24 25 
3 24 26 25 
3 25 26 27 
3 26 28 27 
3 27 28 29 
3 28 30 29 
3 29 30 31 
3 30 0 31 
3 31 0 2 
3 2 3 32 
3 32 3 33 
3 3 5 33 
3 33 5 34 
3 5 7 34 
3 34 7 35 
3 7 9 35 
3 35 9 36 
3 9 11 36 
3 36 11 37 
3 11 13 37 
3 37 13 38 
3 13 15 38 
3 38 15 39 
3 15 17 39 
3 39 17 40 
3 17 19 40 
3 40 19 41 
3 19 21 41 
3 41 21 42 
3 21 23 42 
3 42 23 43 
3 23 25 43 
3 43 25 44 
3 25 27 44 
3 44 27 45 
3 27 29 45 
3 45 29 46 
3 29 31 46 
3 46 31 47 
3 31 2 47 
3 47 2 32 
3 32 33 48 
3 48 33 49 
3 33 34 49 
3 49 34 50 
3 34 35 50 
3 50 35 51 
3 35 36 51 
3 51 36 52 
3 36 37 52 
3 52 37 53 
3 37 38 53 
3 53 38 54 
3 38 39 54 
3 54 39 55 
3 39 40 55 
3 55 40 56 
3 40 41 56 
3 56 41 57 
3 41 42 57 
3 57 42 58 
3 42 43 58 
3 58 43 59 
3 43 44 59 
3 59 44 60 
3 44 45 60 
3 60 45 61 
3 45 46 61 
3 61 46 62 
3 46 47 62 
3 62 47 63 
3 47 32 63 
3 63 32 48 
3 48 49 64 
3 64 49 65 
3 49 50 65 
3 65 50 66 
3 50 51 66 
3 66 51 67 
3 51 52 67 
3 67 52 68 
3 52 53 68 
3 68 53 69 
3 53 54 69 
3 69 54 70 
3 54 55 70 
3 70 55 71 
3 55 56 71 
3 71 56 72 
3 56 57 72 
3 72 57 73 
3 57 58 73 
3 73 58 74 
3 58 59 74 
3 74 59 75 
3 59 60 75 
3 75 60 76 
3 60 61 76 
3 76 61 77 
3 61 62 77 
3 77 62 78 
3 62 63 78 
3 78 63 79 
3 63 48 79 
3 79 48 64 
3 64 65 80 
3 80 65 81 
3 65 66 81 
3 81 66 82 
3 66 67 82 
3 82 67 83 
3 67 68 83 
3 83 68 84 
3 68 69 84 
3 84 69 85 
3 69 70 85 
3 85 70 86 
3 70 71 86 
3 86 71 87 
3 71 72 87 
3 87 72 88 
3 72 73 88 
3 88 73 89 
3 73 74 89 
3 89 74 90 
3 74 75 90 
3 90 75 91 
3 75 76 91 
3 91 76 92 
3 76 77 92 
3 92 77 93 
3 77 78 93 
3 93 78 94 
3 78 79 94 
3 94 79 95 
3 79 64 95 
3 95 64 80 
3 80 81 96 
3 96 81 97 
3 81 82 97 
3 97 82 98 
3 82 83 98 
3 98 83 99 
3 83 84 99 
3 99 84 100 
3 84 85 100 
3 100 85 101 
3 85 86 101 
3 101 86 102 
3 86 87 102 
3 102 87 103 
3 87 88 103 
3 103 88 104 
3 88 89 104 
3 104 89 105 
3 89 90 105 
3 105 90 106 
3 90 91 106 
3 106 91 107 
3 91 92 107 
3 107 92 108 
3 92 93 108 
3 108 93 109 
3 93 94 109 
3 109 94 110 
3 94 95 110 
3 110 95 111 
3 95 80 111 
3 111 80 96 
3 96 97 112 
3 112 97 113 
3 97 98 113 
3 113 98 114 
3 98 99 114 
3 114 99 115 
3 99 100 115 
3 115 100 116 
3 100 101 116 
3 116 101 117 
3 101 102 117 
3 117 102 118 
3 102 103 118 
3 118 103 119 
3 103 104 119 
3 119 104 120 
3 104 105 120 
3 120 105 121 
3 105 106 121 
3 121 106 122 
3 106 107 122 
3 122 107 123 
3 107 108 123 
3 123 108 124 
3 108 109 124 
3 124 109 125 
3 109 110 125 
3 125 110 126 
3 110 111 126 
3 126 111 127 
3 111 96 127 
3 127 96 112 
3 112 113 128 
3 128 113 129 
3 113 114 129 
3 129 114 130 
3 114 115 130 
3 130 115 131 
3 115 116 131 
3 131 116 132 
3 116 117 132 
3 132 117 133 
3 117 118 133 
3 133 118 134 
3 118 119 134 
3 134 119 135 
3 119 120 135 
3 135 120 136 
3 120 121 136 
3 136 121 137 
3 121 122 137 
3 137 122 138 
3 122 123 138 
3 138 123 139 
3 123 124 139 
3 139 124 140 
3 124 125 140 
3 140 125 141 
3 125 126 141 
3 141 126 142 
3 126 127 142 
3 142 127 143 
3 127 112 143 
3 143 112 128 
3 128 129 144 
3 144 129 145 
3 129 130 145 
3 145 130 146 
3 130 131 146 
3 146 131 147 
3 131 132 147 
3 147 132 148 
3 132 133 148 
3 148 133 149 
3 133 134 149 
3 149 134 150 
3 134 135 150 
3 150 135 151 
3 135 136 151 
3 151 136 152 
3 136 137 152 
3 152 137 153 
3 137 138 153 
3 153 138 154 
3 138 139 154 
3 154 139 155 
3 139 140 155 
3 155 140 156 
3 140 141 156 
3 156 141 157 
3 141 142 157 
3 157 142 158 
3 142 143 158 
3 158 143 159 
3 143 128 159 
3 159 128 144 
3 144 145 160 
3 160 145 161 
3 145 146 161 
3 161 146 162 
3 146 147 162 
3 162 147 163 
3 147 148 163 
3 163 148 164 
3 148 149 164 
3 164 149 165 
3 149 150 165 
3 165 150 166 
3 150 151 166 
3 166 151 167 
3 151 152 167 
3 167 152 168 
3 152 153 168 
3 168 153 169 
3 153 154 169 
3 169 154 170 
3 154 155 170 
3 170 155 171 
3 155 156 171 
3 171 156 172 
3 156 157 172 
3 172 157 173 
3 157 158 173 
3 173 158 174 
3 158 159 174 
3 174 159 175 
3 159 144 175 
3 175 144 160 
3 160 161 176 
3 176 161 177 
3 161 162 177 
3 177 162 178 
3 162 163 178 
3 178 163 179 
3 163 164 179 
3 179 164 180 
3 164 165 180 
3 180 165 181 
3 165 166 181 
3 181 166 182 
3 166 167 182 
3 182 167 183 
3 167 168 183 
3 183 168 184 
3 168 169 184 
3 184 169 185 
3 169 170 185 
3 185 170 186 
3 170 171 186 
3 186 171 187 
3 171 172 187 
3 187 172 188 
3 172 173 188 
3 188 173 189 
3 173 174 189 
3 189 174 190 
3 174 175 190 
3 190 175 191 
3 175 160 191 
3 191 160 176 
3 176 177 192 
3 192 177 193 
3 177 178 193 
3 193 178 194 
3 178 179 194 
3 194 179 195 
3 179 180 195 
3 195 180 196 
3 180 181 196 
3 196 181 197 
3 181 182 197 
3 197 182 198 
3 182 183 198 
3 198 183 199 
3 183 184 199 
3 199 184 200 
3 184 185 200 
3 200 185 201 
3 185 186 201 
3 201 186 202 
3 186 187 202 
3 202 187 203 
3 187 188 203 
3 203 188 204 
3 188 189 204 
3 204 189 205 
3 189 190 205 
3 205 190 206 
3 190 191 206 
3 206 191 207 
3 191 176 207 
3 207 176 192 
3 192 193 208 
3 208 193 209 
3 193 194 209 
3 209 194 210 
3 194 195 210 
3 210 195 211 
3 195 196 211 
3 211 196 212 
3 196 197 212 
3 212 197 213 
3 197 198 213 
3 213 198 214 
3 198 199 214 
3 214 199 215 
3 199 200 215 
3 215 200 216 
3 200 201 216 
3 216 201 217 
3 201 202 217 
3 217 202 218 
3 202 203 218 
3 218 203 219 
3 203 204 219 
3 219 204 220 
3 204 205 220 
3 220 205 221 
3 205 206 221 
3 221 206 222 
3 206 207 222 
3 222 207 223 
3 207 192 223 
3 223 192 208 
3 208 209 224 
3 224 209 225 
3 209 210 225 
3 225 210 226 
3 210 211 226 
3 226 211 227 
3 211 212 227 
3 227 212 228 
3 212 213 228 
3 228 213 229 
3 213 214 229 
3 229 214 230 
3 214 215 230 
3 230 215 231 
3 215 216 231 
3 231 216 232 
3 216 217 232 
3 232 217 233 
3 217 218 233 
3 233 218 234 
3 218 219 234 
3 234 219 235 
3 219 220 235 
3 235 220 236 
3 220 221 236 
3 236 221 237 
3 221 222 237 
3 237 222 238 
3 222 223 238 
3 238 223 239 
3 223 208 239 
3 239 208 224 
3 224 225 240 
3 240 225 241 
3 225 226 241 
3 241 226 242 
3 226 227 242 
3 242 227 243 
3 227 228 243 
3 243 228 244 
3 228 229 244 
3 244 229 245 
3 229 230 245 
3 245 230 246 
3 230 231 246 
3 246 231 247 
3 231 232 247 
3 247 232 248 
3 232 233 248 
3 248 233 249 
3 233 234 249 
3 249 234 250 
3 234 235 250 
3 250 235 251 
3 235 236 251 
3 251 236 252 
3 236 237 252 
3 252 237 253 
3 237 238 253 
3 253 238 254 
3 238 239 254 
3 254 239 255 
3 239 224 255 
3 255 224 240 
3 240 241 256 
3 256 241 257 
3 241 242 257 
3 257 242 258 
3 242 243 258 
3 258 243 259 
3 243 244 259 
3 259 244 260 
3 244 245 260 
3 260 245 261 
3 245 246 261 
3 261 246 262 
3 246 247 262 
3 262 247 263 
3 247 248 263 
3 263 248 264 
3 248 249 264 
3 264 249 265 
3 249 250 265 
3 265 250 266 
3 250 251 266 
3 266 251 267 
3 251 252 267 
3 267 252 268 
3 252 253 268 
3 268 253 269 
3 253 254 269 
3 269 254 270 
3 254 255 270 
3 270 255 271 
3 255 240 271 
3 271 240 256 
3 256 257 272 
3 272 257 273 
3 257 258 273 
3 273 258 274 
3 258 259 274 
3 274 259 275 
3 259 260 275 
3 275 260 276 
3 260 261 276 
3 276 261 277 
3 261 262 277 
3 277 262 278 
3 262 263 278 
3 278 263 279 
3 263 264 279 
3 279 264 280 
3 264 265 280 
3 280 265 281 
3 265 266 281 
3 281 266 282 
3 266 267 282 
3 282 267 283 
3 267 268 283 
3 283 268 284 
3 268 269 284 
3 284 269 285 
3 269 270 285 
3 285 270 286 
3 270 271 286 
3 286 271 287 
3 271 256 287 
3 287 256 272 
3 272 273 288 
3 288 273 289 
3 273 274 289 
3 289 274 290 
3 274 275 290 
3 290 275 291 
3 275 276 291 
3 291 276 292 
3 276 277 292 
3 292 277 293 
3 277 278 293 
3 293 278 294 
3 278 279 294 
3 294 279 295 
3 279 280 295 
3 295 280 296 
3 280 281 296 
3 296 281 297 
3 281 282 297 
3 297 282 298 
3 282 283 298 
3 298 283 299 
3 283 284 299 
3 299 284 300 
3 284 285 300 
3 300 285 301 
3 285 286 301 
3 301 286 302 
3 286 287 302 
3 302 287 303 
3 287 272 303 
3 303 272 288 
3 26 22 20 
3 30 28 26 
3 30 20 18 
3 18 0 30 
3 30 26 20 
3 26 24 22 
3 18 16 14 
3 18 14 12 
3 18 12 10 
3 18 10 8 
3 18 8 6 
3 18 6 4 
3 18 4 1 
3 18 1 0 
3 298 299 301 
3 301 302 303 
3 297 298 303 
3 303 288 297 
3 298 301 303 
3 299 300 301 
3 295 296 297 
3 294 295 297 
3 293 294 297 
3 292 293 297 
3 291 292 297 
3 290 291 297 
3 289 290 297 
3 288 289 297 
